# xmcd
#
# Track frame offsets: 
#        150
#        16250
#        35655
#        51887
#        72730
#        90477
#        105607
#        127805
#        146962
#        169917
#        186220
#
# Disc length: 2748 seconds
#
# Revision: 8
# Processed by: cddbd v1.5.2PL0 Copyright (c) Steve Scherf et al.
# Submitted via: ExactAudioCopy v0.99pb5
#
DISCID=9c0aba0b
DTITLE=Queensryche - Rage For Order {Japan TOCP-7608}
DYEAR=1986
DGENRE=Heavy Metal
TTITLE0=Walk in the Shadows
TTITLE1=I Dream in Infrared
TTITLE2=The Whisper
TTITLE3=Gonna Get Close to You
TTITLE4=The Killing Words
TTITLE5=Surgical Strike
TTITLE6=Neue Regel
TTITLE7=Chemical Youth (We Are Rebellion)
TTITLE8=London
TTITLE9=Screaming in Digital
TTITLE10=I Will Remember
EXTD=
EXTT0=
EXTT1=
EXTT2=
EXTT3=
EXTT4=
EXTT5=
EXTT6=
EXTT7=
EXTT8=
EXTT9=
EXTT10=
PLAYORDER=
